<svg id="visual" viewBox="0 0 900 600" width="900" height="600" xmlns="http://www.w3.org/2000/svg" xmlns:xlink="http://www.w3.org/1999/xlink" version="1.1">
  <g>
    <g transform="translate(139 106)">
      <path d="M51.3 -14.6C59.8 9.3 55.2 39.5 36.8 53.6C18.4 67.7 -13.9 65.6 -34.6 50C-55.4 34.4 -64.5 5.2 -56.8 -17.7C-49.1 -40.6 -24.6 -57.2 -1.6 -56.7C21.4 -56.2 42.9 -38.5 51.3 -14.6Z" fill="none" stroke="#f59e0b" stroke-width="12"></path>
    </g>
    <g transform="translate(90 408)">
      <path d="M54.4 -19.8C61.2 3.2 50.9 29.6 32.4 42.6C13.9 55.5 -12.9 55 -30 42.4C-47.1 29.7 -54.5 4.8 -47.9 -18C-41.3 -40.8 -20.6 -61.4 1.6 -61.9C23.8 -62.5 47.6 -42.8 54.4 -19.8Z" fill="none" stroke="#f59e0b" stroke-width="12"></path>
    </g>
    <g transform="translate(399 276)">
      <path d="M38.8 -12.9C44.8 6 40.6 28 27 38.1C13.5 48.1 -9.4 46.3 -25.9 34.6C-42.4 22.8 -52.4 1.3 -47.1 -16.7C-41.7 -34.7 -20.8 -49.1 -2.2 -48.3C16.4 -47.6 32.7 -31.8 38.8 -12.9Z" fill="none" stroke="#f59e0b" stroke-width="12"></path>
    </g>
    <g transform="translate(465 547)">
      <path d="M47.6 -14.8C54.7 6.5 48.7 32.7 31.1 46.3C13.5 59.9 -15.8 60.9 -35.5 47C-55.3 33.1 -65.6 4.2 -58.1 -17.6C-50.6 -39.4 -25.3 -54.2 -2.5 -53.4C20.2 -52.5 40.5 -36.1 47.6 -14.8Z" stroke="#f59e0b" fill="none" stroke-width="12"></path>
    </g>
    <g transform="translate(854 22)">
      <path d="M32.3 -10.7C35.7 0 28.1 14.1 17.4 21.2C6.7 28.3 -7 28.4 -16.3 21.8C-25.5 15.2 -30.3 1.9 -26.9 -8.9C-23.4 -19.7 -11.7 -27.9 1.4 -28.4C14.5 -28.8 28.9 -21.5 32.3 -10.7Z" stroke="#f59e0b" fill="none" stroke-width="12"></path>
    </g>
    <g transform="translate(197 595)">
      <path d="M48.9 -17.9C55.9 5.8 49.1 32 30.7 46.3C12.3 60.6 -17.6 63 -37 49.3C-56.3 35.6 -65.1 5.8 -57.2 -19.1C-49.3 -44.1 -24.6 -64.1 -1.9 -63.5C20.9 -62.9 41.8 -41.6 48.9 -17.9Z" stroke="#f59e0b" fill="none" stroke-width="12"></path>
    </g>
    <g transform="translate(788 249)">
      <path d="M51.3 -16.6C58.3 4.9 50.2 31.4 32.4 44.3C14.6 57.2 -13 56.5 -31.5 43C-50.1 29.6 -59.7 3.6 -53 -17.6C-46.2 -38.7 -23.1 -55 -0.5 -54.8C22.1 -54.6 44.2 -38.1 51.3 -16.6Z" stroke="#f59e0b" fill="none" stroke-width="12"></path>
    </g>
    <g transform="translate(10 248)">
      <path d="M35.1 -12.6C39.1 1.1 31.7 17.3 19.5 26.1C7.2 34.8 -9.9 36 -20.6 28.3C-31.3 20.5 -35.6 3.8 -31.1 -10.5C-26.6 -24.8 -13.3 -36.7 1.1 -37C15.5 -37.4 31 -26.2 35.1 -12.6Z" stroke="#f59e0b" fill="none" stroke-width="12"></path>
    </g>
    <g transform="translate(628 8)">
      <path d="M43.9 -15C50.3 5.3 44.2 28.8 28.4 40.7C12.6 52.5 -12.8 52.5 -28.4 40.8C-44.1 29 -49.9 5.5 -43.5 -14.8C-37.2 -35.1 -18.6 -52 0.1 -52C18.8 -52.1 37.6 -35.2 43.9 -15Z" stroke="#f59e0b" fill="none" stroke-width="12"></path>
    </g>
    <g transform="translate(277 428)">
      <path d="M28.5 -9.6C32.9 4.4 29.7 20.5 19.3 28.5C8.8 36.6 -9 36.7 -20 28.5C-31 20.3 -35.2 3.7 -30.7 -10.3C-26.3 -24.3 -13.1 -35.8 -0.6 -35.6C12 -35.4 24 -23.6 28.5 -9.6Z" stroke="#f59e0b" fill="none" stroke-width="12"></path>
    </g>
    <g transform="translate(412 82)">
      <path d="M52.6 -17.3C58.8 1.9 47.9 26.4 28.7 40.6C9.5 54.8 -18 58.7 -34 47C-50.1 35.3 -54.7 8 -47.2 -13.1C-39.6 -34.2 -19.8 -49.2 1.7 -49.7C23.2 -50.3 46.5 -36.5 52.6 -17.3Z" stroke="#f59e0b" fill="none" stroke-width="12"></path>
    </g>
    <g transform="translate(823 427)">
      <path d="M53.3 -19.3C59.7 2.2 48.8 27.2 30.8 39.7C12.8 52.1 -12.3 51.9 -28.2 40.1C-44 28.2 -50.5 4.9 -44.2 -16.4C-38 -37.8 -19 -57 2.3 -57.7C23.5 -58.5 47 -40.7 53.3 -19.3Z" stroke="#f59e0b" fill="none" stroke-width="12"></path>
    </g>
    <g transform="translate(586 322)">
      <path d="M35.2 -11.6C39.6 2.2 33.1 19.4 21 28C8.9 36.6 -8.9 36.7 -19.7 28.5C-30.5 20.3 -34.4 3.9 -30 -9.9C-25.5 -23.8 -12.8 -35.1 1.3 -35.5C15.4 -35.9 30.7 -25.5 35.2 -11.6Z" stroke="#f59e0b" fill="none" stroke-width="12"></path>
    </g>
    <g transform="translate(674 566)">
      <path d="M46.5 -17.8C52.3 2.7 43.6 25.3 27.4 37C11.1 48.6 -12.5 49.2 -30.3 37.4C-48.1 25.5 -59.9 1.1 -53.9 -19.8C-47.8 -40.7 -23.9 -58.1 -1.8 -57.5C20.4 -56.9 40.7 -38.4 46.5 -17.8Z" stroke="#f59e0b" fill="none" stroke-width="12"></path>
    </g>
  </g>
</svg>